# xmcd
#
# Track frame offsets: 
#        150
#        4372
#        22361
#        45194
#        77527
#        119684
#        152777
#
# Disc length: 2954 seconds
#
# Revision: 3
# Processed by: cddbd v1.5.2PL0 Copyright (c) Steve Scherf et al.
# Submitted via: ExactAudioCopy v1.0b6
#
DISCID=510b8807
DTITLE=Dan Weiss - Sixteen: Drummers suite
DYEAR=2014
DGENRE=Jazz
TTITLE0=The drummers meet
TTITLE1=Elvin
TTITLE2=Max
TTITLE3=Tony
TTITLE4=Philly Joe
TTITLE5=Klook
TTITLE6=Ed
EXTD=YEAR: 2014
EXTT0=
EXTT1=
EXTT2=
EXTT3=
EXTT4=
EXTT5=
EXTT6=
PLAYORDER=
